<svg xmlns="http://www.w3.org/2000/svg" width="56" height="56" viewBox="0 0 56 56">
    <defs>
        <clipPath id="8d08tn6wva">
            <path fill="#fff" stroke="#707070" d="M0 0H56V56H0z"/>
        </clipPath>
    </defs>
    <g clip-path="url(#8d08tn6wva)">
        <path fill="#4CB861" d="M41.6 13.531a4.328 4.328 0 0 0-5.079-.737 17.337 17.337 0 1 0 6.037 5.481 4.374 4.374 0 0 0-.958-4.744zM37.907 37.9a14.343 14.343 0 0 1-19.8 0 13.954 13.954 0 0 1 16.23-22.324 4.27 4.27 0 0 0 5.589 5.148A13.892 13.892 0 0 1 37.907 37.9zm9.914-29.7a27.94 27.94 0 0 0-31.736-5.51c.048.046.1.077.152.124a9.517 9.517 0 0 1 1.9 2.769 24.455 24.455 0 0 1 30.741 35.2 6.169 6.169 0 1 0 2.669 2.317 27.952 27.952 0 0 0-3.726-34.9zM46.386 49a2.625 2.625 0 1 1 2.626-2.625A2.625 2.625 0 0 1 46.386 49zm-8.661 1.49A24.511 24.511 0 0 1 3.491 28a24.206 24.206 0 0 1 3.691-12.764 6.192 6.192 0 1 0-2.732-2.365 27.978 27.978 0 0 0 35.356 40.5c-.071-.067-.155-.113-.224-.183a9.511 9.511 0 0 1-1.856-2.694zM9.627 7A2.625 2.625 0 1 1 7 9.625 2.625 2.625 0 0 1 9.627 7zm18.38 12.25A8.75 8.75 0 1 0 36.759 28a8.75 8.75 0 0 0-8.752-8.751zm0 14A5.25 5.25 0 1 1 33.258 28a5.25 5.25 0 0 1-5.251 5.25z" transform="translate(.001 .001)"/>
    </g>
</svg>
